<svg id="Layer_1" enable-background="new 0 0 512 512" height="512" viewBox="0 0 512 512" width="512" xmlns="http://www.w3.org/2000/svg"><g><path d="m176 10h160v100h-160z" fill="#f9f9f9"/><path d="m191 432h130v70h-130z" fill="#00ccf2"/><path d="m191 300h130v70h-130z" fill="#f9f9f9"/><path d="m10 300h130v70h-130z" fill="#f9f9f9"/><path d="m10 170h130v70h-130z" fill="#ff7d97"/><path d="m372 170h130v70h-130z" fill="#ffee80"/><path d="m217.109 166.109h77.782v77.782h-77.782z" fill="#ccf5fc" transform="matrix(.707 -.707 .707 .707 -69.976 241.062)"/><g><path d="m502 160h-130c-5.523 0-10 4.477-10 10v25h-46.857l-49.143-49.143v-25.857h70c5.523 0 10-4.477 10-10v-100c0-5.523-4.477-10-10-10h-160c-5.523 0-10 4.477-10 10v100c0 5.523 4.477 10 10 10h70v25.857l-49.143 49.143h-46.857v-25c0-5.523-4.477-10-10-10h-130c-5.523 0-10 4.477-10 10v70c0 5.523 4.477 10 10 10h55v40h-55c-5.523 0-10 4.477-10 10v70c0 5.523 4.477 10 10 10h130c5.523 0 10-4.477 10-10v-70c0-5.523-4.477-10-10-10h-55v-40h55c5.523 0 10-4.477 10-10v-25h46.857l49.143 49.143v25.857h-55c-5.523 0-10 4.477-10 10v70c0 5.523 4.477 10 10 10h55v42h-55c-5.523 0-10 4.477-10 10v70c0 5.523 4.477 10 10 10h130c5.523 0 10-4.477 10-10v-70c0-5.523-4.477-10-10-10h-55v-42h55c5.523 0 10-4.477 10-10v-25h60c5.51 0 10-4.49 10-10s-4.49-10-10-10h-60v-25c0-5.523-4.477-10-10-10h-55v-25.857l49.143-49.143h46.857v25c0 5.523 4.477 10 10 10h55v41c0 5.51 4.49 10 10 10s10-4.49 10-10v-41h55c5.523 0 10-4.477 10-10v-70c0-5.523-4.477-10-10-10zm-316-140h140v80h-140zm-56 340h-110v-50h110zm0-130h-110v-50h110zm181 262h-110v-50h110zm0-132h-110v-50h110zm-55-114.142-40.858-40.858 40.858-40.858 40.858 40.858zm236-15.858h-110v-50h110z"/><path d="m306 60c0-5.523-4.477-10-10-10h-80c-5.523 0-10 4.477-10 10s4.477 10 10 10h80c5.523 0 10-4.477 10-10z"/><circle cx="436" cy="335" r="10"/></g></g></svg>